<svg xmlns="http://www.w3.org/2000/svg" width="304.498" height="70.071" viewBox="0 0 304.498 70.071">
  <g id="Group_157" data-name="Group 157" transform="translate(-37.436 -81.299)">
    <g id="Group_1" data-name="Group 1" transform="translate(37.436 81.299)">
      <rect id="Rectangle_1" data-name="Rectangle 1" width="10.247" height="10.247" transform="translate(0 34.991) rotate(-44.997)" fill="#464749"/>
      <rect id="Rectangle_2" data-name="Rectangle 2" width="10.247" height="10.247" transform="matrix(0.707, -0.707, 0.707, 0.707, 9.278, 44.27)" fill="#464749"/>
      <rect id="Rectangle_3" data-name="Rectangle 3" width="10.247" height="10.247" transform="translate(18.556 53.547) rotate(-45)" fill="#464749"/>
      <rect id="Rectangle_4" data-name="Rectangle 4" width="10.248" height="10.248" transform="matrix(0.707, -0.707, 0.707, 0.707, 9.278, 25.803)" fill="#65b031"/>
      <rect id="Rectangle_5" data-name="Rectangle 5" width="10.247" height="10.247" transform="translate(18.556 16.435) rotate(-45)" fill="#65b031"/>
      <rect id="Rectangle_6" data-name="Rectangle 6" width="10.247" height="10.247" transform="matrix(0.707, -0.707, 0.707, 0.707, 27.833, 7.246)" fill="#65b031"/>
      <rect id="Rectangle_7" data-name="Rectangle 7" width="10.247" height="10.247" transform="matrix(0.707, -0.707, 0.707, 0.707, 18.556, 35.079)" fill="#65b031"/>
      <rect id="Rectangle_8" data-name="Rectangle 8" width="10.247" height="10.247" transform="translate(27.833 25.713) rotate(-45)" fill="#65b031"/>
      <rect id="Rectangle_9" data-name="Rectangle 9" width="10.247" height="10.247" transform="translate(37.111 16.524) rotate(-45.003)" fill="#65b031"/>
      <rect id="Rectangle_10" data-name="Rectangle 10" width="10.247" height="10.247" transform="matrix(0.707, -0.707, 0.707, 0.707, 27.834, 44.357)" fill="#65b031"/>
      <rect id="Rectangle_11" data-name="Rectangle 11" width="10.247" height="10.247" transform="translate(37.111 34.991) rotate(-44.997)" fill="#65b031"/>
      <rect id="Rectangle_12" data-name="Rectangle 12" width="10.247" height="10.247" transform="translate(46.389 25.714) rotate(-45.005)" fill="#65b031"/>
      <rect id="Rectangle_13" data-name="Rectangle 13" width="10.248" height="10.248" transform="matrix(0.707, -0.707, 0.707, 0.707, 27.833, 62.824)" fill="#464749"/>
      <rect id="Rectangle_14" data-name="Rectangle 14" width="10.247" height="10.247" transform="translate(37.111 53.634) rotate(-44.998)" fill="#464749"/>
      <rect id="Rectangle_15" data-name="Rectangle 15" width="10.247" height="10.247" transform="translate(46.389 44.27) rotate(-45.01)" fill="#464749"/>
      <rect id="Rectangle_16" data-name="Rectangle 16" width="10.247" height="10.247" transform="translate(55.666 35.078) rotate(-44.998)" fill="#464749"/>
    </g>
    <g id="Group_2" data-name="Group 2" transform="translate(126.93 90.379)">
      <path id="Path_1" data-name="Path 1" d="M116.377,104.125l3.963-12.375a4.721,4.721,0,0,0,.242-1.136c0-.6-.41-.725-1.33-.725v-.846h4.086v.846c-1.014,0-1.209.242-1.6,1.378L116.5,107.34h-1.451L109.585,91.6c-.556-1.523-.7-1.716-1.813-1.716v-.846h5.462v.846c-1.014,0-1.4.169-1.4.7a3.742,3.742,0,0,0,.266,1.136l4.206,12.4Z" transform="translate(-107.772 -88.27)" fill="#1a1818"/>
      <path id="Path_2" data-name="Path 2" d="M127.662,96.889c0-1.4-.435-2.658-2.32-2.658a2.638,2.638,0,0,0-2.635,1.933.982.982,0,0,1-1.064.725.8.8,0,0,1-.87-.87c0-1.183,1.668-2.683,4.689-2.683,1.813,0,2.8.364,3.505,1.112a3.821,3.821,0,0,1,.919,2.8v6.068c0,1.232.266,1.764.8,1.764a1.358,1.358,0,0,0,.725-.192l.193.724a4.416,4.416,0,0,1-1.861.338,1.8,1.8,0,0,1-1.934-1.353h-.073a5.151,5.151,0,0,1-3.868,1.5c-1.739,0-3.649-.919-3.649-3.143a3.252,3.252,0,0,1,1.716-3,12.027,12.027,0,0,1,4.084-1.547l1.644-.387Zm0,2.031c-3.578.919-5.124,2.055-5.124,3.722a2.093,2.093,0,0,0,2.32,2.3,3.929,3.929,0,0,0,2.8-1.328Z" transform="translate(-104.382 -87.1)" fill="#1a1818"/>
      <path id="Path_3" data-name="Path 3" d="M129.945,106.393c1.644,0,1.741-.218,1.741-1.813V91.891c0-1.5-.1-1.668-1.741-1.668V89.57a10.549,10.549,0,0,0,3.675-1.135l.266.168v16c0,1.57.1,1.788,1.644,1.788v.749h-5.584Z" transform="translate(-101.733 -88.435)" fill="#1a1818"/>
      <path id="Path_4" data-name="Path 4" d="M139.343,94.654v9.765c0,1.6.1,1.788,1.644,1.788v.749h-5.609v-.749c1.62,0,1.742-.192,1.742-1.813V97.989c0-1.644-.1-1.692-1.742-1.692v-.676a9.4,9.4,0,0,0,3.7-1.137Zm1.04-5.536,1.064,1.5L137.264,93.2l-.508-.7Z" transform="translate(-100.253 -88.249)" fill="#1a1818"/>
      <path id="Path_5" data-name="Path 5" d="M151,104.515a6.076,6.076,0,0,1-1.716,1.861,4.932,4.932,0,0,1-2.8.8,5.127,5.127,0,0,1-3.794-1.4,7.108,7.108,0,0,1-1.741-5.051,6.428,6.428,0,0,1,1.475-4.448,5.175,5.175,0,0,1,4.206-1.861,4.789,4.789,0,0,1,3.166,1.015,1.977,1.977,0,0,1,.894,1.547c0,.58-.29.967-.8.967a.863.863,0,0,1-.653-.29,5.951,5.951,0,0,1-.677-1.088,1.9,1.9,0,0,0-1.884-1.256,2.859,2.859,0,0,0-2.467,1.522,7.062,7.062,0,0,0-.917,3.892,7.493,7.493,0,0,0,.869,3.891,3.143,3.143,0,0,0,2.733,1.571,3.347,3.347,0,0,0,1.957-.6,4.913,4.913,0,0,0,1.378-1.5Zm-4.5-13.463,2.974-1.668.459.7-3.407,2.756h-.1l-3.407-2.756.484-.7,2.948,1.668Z" transform="translate(-98.736 -88.176)" fill="#1a1818"/>
      <path id="Path_6" data-name="Path 6" d="M160.57,103.173a5.152,5.152,0,0,1-4.69,2.925c-4.5,0-5.777-3.143-5.777-6.647,0-2.974,1.6-6.116,5.39-6.116,4.061,0,5.077,3.626,5.077,6.189h-8.122a7.547,7.547,0,0,0,.895,4.061,3.287,3.287,0,0,0,2.756,1.546,4.089,4.089,0,0,0,3.673-2.32Zm-2.3-4.544c0-1.5-.314-4.4-2.8-4.4-1.257,0-2.853,1.014-3.022,4.4Z" transform="translate(-96.242 -87.1)" fill="#1a1818"/>
      <path id="Path_7" data-name="Path 7" d="M163.411,100.447h.048l3.626-3.626c.314-.314.532-.58.532-.774s-.266-.314-.943-.314v-.748h4.108v.748a2.406,2.406,0,0,0-1.836.8l-2.635,2.611,3.892,6.188a1.891,1.891,0,0,0,1.933,1.088v.725h-3.359l-4.037-6.623-1.33,1.378v2.708c.025,1.57.074,1.788,1.451,1.788v.749h-5.221v-.749c1.473,0,1.546-.218,1.546-1.813V92.012c0-1.571-.144-1.789-1.546-1.789V89.57a9.871,9.871,0,0,0,3.481-1.135l.289.168Z" transform="translate(-93.644 -88.435)" fill="#1a1818"/>
      <path id="Path_8" data-name="Path 8" d="M191.127,98.1c-1.038-.024-1.522.169-1.884,1.547a9.907,9.907,0,0,1-2.176,4.666c1.064,1.159,1.765,1.691,2.634,1.691a1.934,1.934,0,0,0,1.452-.627l.532.6a3.391,3.391,0,0,1-2.587,1.136,4.835,4.835,0,0,1-3.385-1.571,5.925,5.925,0,0,1-4.205,1.6c-3.626,0-5.319-2.079-5.319-4.471,0-2.9,1.958-4.134,3.626-5.027a9.073,9.073,0,0,1-1.6-4.206c0-2.442,1.861-3.771,4.134-3.771,2.489,0,3.939,1.5,3.939,3.191,0,2.393-2.078,3.722-4.134,4.787,1.185,1.836,2.588,3.818,4.231,5.9a6.947,6.947,0,0,0,1.692-4.472c0-.774-.412-.967-1.378-.967v-.774h4.423Zm-9.33,8.05a4.181,4.181,0,0,0,3.022-1.33,53.025,53.025,0,0,1-4.326-6,5.831,5.831,0,0,0-1.233,1.209,3.544,3.544,0,0,0-.87,2.466A3.321,3.321,0,0,0,181.8,106.155Zm-1.644-13.126a6.976,6.976,0,0,0,1.378,3.649c1.839-1.04,2.9-2.369,2.9-3.915a2.013,2.013,0,0,0-2.031-2.176A2.189,2.189,0,0,0,180.152,93.029Z" transform="translate(-89.137 -88.099)" fill="#65b031"/>
      <path id="Path_9" data-name="Path 9" d="M203.052,104.125l3.966-12.375a4.833,4.833,0,0,0,.241-1.136c0-.6-.411-.725-1.33-.725v-.846h4.086v.846c-1.015,0-1.209.242-1.6,1.378l-5.245,16.074h-1.451L196.261,91.6c-.556-1.523-.7-1.716-1.813-1.716v-.846h5.462v.846c-1.015,0-1.4.169-1.4.7a3.7,3.7,0,0,0,.266,1.136l4.206,12.4Z" transform="translate(-84.163 -88.27)" fill="#1a1818"/>
      <path id="Path_10" data-name="Path 10" d="M214.339,96.889c0-1.4-.435-2.658-2.322-2.658a2.637,2.637,0,0,0-2.634,1.933.982.982,0,0,1-1.064.725.8.8,0,0,1-.869-.87c0-1.183,1.667-2.683,4.689-2.683,1.813,0,2.8.364,3.5,1.112a3.821,3.821,0,0,1,.919,2.8v6.068c0,1.232.266,1.764.8,1.764a1.358,1.358,0,0,0,.725-.192l.193.724a4.416,4.416,0,0,1-1.861.338,1.8,1.8,0,0,1-1.934-1.353h-.073a5.146,5.146,0,0,1-3.867,1.5c-1.741,0-3.65-.919-3.65-3.143a3.252,3.252,0,0,1,1.716-3,12.014,12.014,0,0,1,4.086-1.547l1.644-.387Zm0,2.031c-3.578.919-5.125,2.055-5.125,3.722a2.093,2.093,0,0,0,2.321,2.3,3.932,3.932,0,0,0,2.8-1.328Z" transform="translate(-80.774 -87.1)" fill="#1a1818"/>
      <path id="Path_11" data-name="Path 11" d="M216.622,106.393c1.643,0,1.739-.218,1.739-1.813V91.891c0-1.5-.1-1.668-1.739-1.668V89.57a10.527,10.527,0,0,0,3.672-1.135l.266.168v16c0,1.57.1,1.788,1.644,1.788v.749h-5.582Z" transform="translate(-78.124 -88.435)" fill="#1a1818"/>
      <path id="Path_12" data-name="Path 12" d="M226.018,94.654v9.765c0,1.6.1,1.788,1.644,1.788v.749h-5.607v-.749c1.62,0,1.741-.192,1.741-1.813V97.989c0-1.644-.1-1.692-1.741-1.692v-.676a9.4,9.4,0,0,0,3.7-1.137Zm1.041-5.536,1.064,1.5L223.941,93.2l-.508-.7Z" transform="translate(-76.644 -88.249)" fill="#1a1818"/>
      <path id="Path_13" data-name="Path 13" d="M237.678,104.515a6.082,6.082,0,0,1-1.718,1.861,4.928,4.928,0,0,1-2.8.8,5.127,5.127,0,0,1-3.794-1.4,7.108,7.108,0,0,1-1.741-5.051,6.428,6.428,0,0,1,1.475-4.448,5.174,5.174,0,0,1,4.205-1.861,4.79,4.79,0,0,1,3.167,1.015,1.977,1.977,0,0,1,.894,1.547c0,.58-.291.967-.8.967a.861.861,0,0,1-.653-.29,5.882,5.882,0,0,1-.677-1.088,1.9,1.9,0,0,0-1.884-1.256,2.859,2.859,0,0,0-2.467,1.522,7.061,7.061,0,0,0-.919,3.892,7.479,7.479,0,0,0,.87,3.891,3.141,3.141,0,0,0,2.732,1.571,3.348,3.348,0,0,0,1.958-.6,4.928,4.928,0,0,0,1.378-1.5Zm-4.5-13.463,2.974-1.668.459.7-3.409,2.756h-.1L229.7,90.085l.483-.7,2.949,1.668Z" transform="translate(-75.128 -88.176)" fill="#1a1818"/>
      <path id="Path_14" data-name="Path 14" d="M240.4,100.447h.048l3.626-3.626c.314-.314.532-.58.532-.774s-.266-.314-.943-.314v-.748h4.108v.748a2.407,2.407,0,0,0-1.836.8L243.3,99.142l3.891,6.188a1.893,1.893,0,0,0,1.934,1.088v.725h-3.36l-4.037-6.623L240.4,101.9v2.708c.025,1.57.074,1.788,1.45,1.788v.749h-5.222v-.749c1.476,0,1.548-.218,1.548-1.813V92.012c0-1.571-.145-1.789-1.548-1.789V89.57a9.853,9.853,0,0,0,3.482-1.135l.289.168Z" transform="translate(-72.675 -88.435)" fill="#1a1818"/>
      <path id="Path_15" data-name="Path 15" d="M247.363,99.669c0-4.013,2.1-6.334,5.777-6.334,3.505,0,5.778,2.032,5.778,6.334,0,3.794-1.547,6.429-5.778,6.429S247.363,103.536,247.363,99.669Zm2.321.048a7.343,7.343,0,0,0,1.064,4.423,2.82,2.82,0,0,0,2.368,1.088c2.9,0,3.409-3.045,3.409-5.511,0-3.385-.991-5.486-3.409-5.486C250.408,94.231,249.684,96.792,249.684,99.717Z" transform="translate(-69.751 -87.1)" fill="#1a1818"/>
      <path id="Path_16" data-name="Path 16" d="M263.966,106.031h-.919L258.986,96c-.651-1.546-.846-1.668-1.667-1.668v-.748h4.858v.748c-.822,0-1.135.1-1.135.484a2.907,2.907,0,0,0,.24.894l2.756,7.4h.048l2.877-7.783a1.694,1.694,0,0,0,.144-.579c0-.314-.266-.412-1.038-.412v-.748h3.359v.748c-.7,0-.917.122-1.354,1.21Z" transform="translate(-67.039 -87.033)" fill="#1a1818"/>
      <path id="Path_17" data-name="Path 17" d="M275.195,98.037c0-1.4-.435-2.658-2.321-2.658a2.636,2.636,0,0,0-2.634,1.933.982.982,0,0,1-1.064.725.8.8,0,0,1-.87-.87c0-1.183,1.668-2.683,4.69-2.683,1.812,0,2.8.364,3.5,1.112a3.826,3.826,0,0,1,.917,2.8v6.068c0,1.232.266,1.764.8,1.764a1.355,1.355,0,0,0,.725-.192l.195.724a4.424,4.424,0,0,1-1.861.338,1.8,1.8,0,0,1-1.934-1.353h-.073a5.148,5.148,0,0,1-3.867,1.5c-1.741,0-3.65-.919-3.65-3.143a3.251,3.251,0,0,1,1.715-3,12.024,12.024,0,0,1,4.086-1.547l1.644-.387Zm0,2.031c-3.577.919-5.124,2.055-5.124,3.722a2.093,2.093,0,0,0,2.32,2.3,3.931,3.931,0,0,0,2.8-1.328Zm.508-10.95,1.088,1.5L272.584,93.2l-.508-.7Z" transform="translate(-64.198 -88.249)" fill="#1a1818"/>
    </g>
    <rect id="Rectangle_17" data-name="Rectangle 17" width="215.178" height="0.636" transform="translate(126.756 116.083)" fill="#aeb0b3"/>
    <g id="Group_3" data-name="Group 3" transform="translate(168.561 123.15)">
      <path id="Path_18" data-name="Path 18" d="M145.265,121.89a9.928,9.928,0,0,0,.1,1.6h-.617l-.1-.966h-.027a2.571,2.571,0,0,1-2.155,1.12,1.825,1.825,0,0,1-1.975-1.846c0-1.555,1.358-2.493,4.1-2.466v-.182c0-.658-.125-1.987-1.72-1.972a2.936,2.936,0,0,0-1.695.5l-.21-.49a3.706,3.706,0,0,1,1.975-.575c1.945,0,2.323,1.456,2.323,2.645Zm-.673-2c-1.47-.041-3.4.183-3.4,1.793a1.284,1.284,0,0,0,1.342,1.4,2.011,2.011,0,0,0,1.989-1.344,1.123,1.123,0,0,0,.069-.406Z" transform="translate(-140.491 -113.532)" fill="#464749"/>
      <path id="Path_19" data-name="Path 19" d="M151.429,114.191v8.4c0,.49.014,1.079.056,1.554h-.6l-.056-1.272H150.8a2.547,2.547,0,0,1-2.393,1.426c-1.667,0-2.9-1.386-2.9-3.387-.013-2.239,1.372-3.64,3.023-3.64a2.378,2.378,0,0,1,2.2,1.19h.028v-4.27Zm-.672,5.895a2.379,2.379,0,0,0-.07-.616,2.152,2.152,0,0,0-2.113-1.638c-1.471,0-2.393,1.274-2.393,3.009,0,1.51.755,2.9,2.35,2.9a2.228,2.228,0,0,0,2.157-1.75,1.754,1.754,0,0,0,.07-.56Z" transform="translate(-139.125 -114.191)" fill="#464749"/>
      <path id="Path_20" data-name="Path 20" d="M151.92,116.733l1.568,4.172c.266.658.476,1.218.658,1.792h.028c.182-.56.434-1.148.686-1.792l1.6-4.172h.7l-2.729,6.719h-.588l-2.631-6.719Z" transform="translate(-137.572 -113.499)" fill="#464749"/>
      <path id="Path_21" data-name="Path 21" d="M159.465,123.639a3.15,3.15,0,0,1-3.079-3.457,3.251,3.251,0,0,1,3.177-3.57c1.863,0,3.121,1.4,3.121,3.458a3.255,3.255,0,0,1-3.2,3.569Zm.042-.56a2.718,2.718,0,0,0,2.507-2.981c0-1.232-.686-2.925-2.463-2.925-1.723,0-2.491,1.526-2.491,2.967a2.671,2.671,0,0,0,2.435,2.939Z" transform="translate(-136.162 -113.532)" fill="#464749"/>
      <path id="Path_22" data-name="Path 22" d="M163.339,120.66h.028c.168-.211.434-.519.644-.743l2.379-2.491h.812l-2.715,2.786,3.093,3.933h-.812l-2.743-3.527-.686.729v2.8h-.672v-9.954h.672Z" transform="translate(-134.451 -114.191)" fill="#464749"/>
      <path id="Path_23" data-name="Path 23" d="M171.929,122.48a10.074,10.074,0,0,0,.1,1.6h-.616l-.1-.966h-.027a2.571,2.571,0,0,1-2.155,1.12,1.825,1.825,0,0,1-1.975-1.846c0-1.555,1.358-2.493,4.1-2.466v-.182c0-.658-.125-1.987-1.72-1.972a2.936,2.936,0,0,0-1.695.5l-.21-.49a3.705,3.705,0,0,1,1.975-.575c1.945,0,2.323,1.456,2.323,2.645Zm-.673-2c-1.47-.041-3.4.183-3.4,1.793a1.284,1.284,0,0,0,1.342,1.4,2.011,2.011,0,0,0,1.989-1.344,1.123,1.123,0,0,0,.069-.406Zm.141-6.032-1.709,1.931h-.517l1.244-1.931Z" transform="translate(-133.228 -114.122)" fill="#464749"/>
      <path id="Path_24" data-name="Path 24" d="M173.723,115.567v1.484h1.917v.546h-1.917v4.368c0,.854.266,1.386.981,1.386a2.531,2.531,0,0,0,.769-.1l.085.5a2.656,2.656,0,0,1-.938.154,1.433,1.433,0,0,1-1.149-.461,2.459,2.459,0,0,1-.42-1.611V117.6h-1.132v-.546h1.132v-1.23Z" transform="translate(-131.931 -113.816)" fill="#464749"/>
      <path id="Path_25" data-name="Path 25" d="M176.022,118.375c0-.615-.014-1.078-.057-1.61h.63l.043,1.2h.028a2.528,2.528,0,0,1,2.311-1.359c.643,0,2.35.322,2.35,2.842v4.031h-.672V119.51c0-1.232-.476-2.337-1.861-2.337a2.154,2.154,0,0,0-2.015,1.552,2.384,2.384,0,0,0-.084.589v4.171h-.672Z" transform="translate(-130.829 -113.532)" fill="#464749"/>
      <path id="Path_26" data-name="Path 26" d="M183.933,114.445l-1.708,1.931h-.518l1.244-1.931Zm-1.973,9.631v-6.719h.671v6.719Z" transform="translate(-129.264 -114.122)" fill="#464749"/>
      <path id="Path_27" data-name="Path 27" d="M187.274,120.66h.029c.168-.211.434-.519.644-.743l2.379-2.491h.812l-2.715,2.786,3.092,3.933h-.81l-2.745-3.527-.686.729v2.8H186.6v-9.954h.672Z" transform="translate(-127.931 -114.191)" fill="#464749"/>
      <path id="Path_28" data-name="Path 28" d="M195.864,121.89a10.076,10.076,0,0,0,.1,1.6h-.616l-.1-.966h-.028a2.567,2.567,0,0,1-2.155,1.12,1.826,1.826,0,0,1-1.975-1.846c0-1.555,1.359-2.493,4.1-2.466v-.182c0-.658-.126-1.987-1.722-1.972a2.939,2.939,0,0,0-1.695.5l-.21-.49a3.712,3.712,0,0,1,1.975-.575c1.945,0,2.323,1.456,2.323,2.645Zm-.672-2c-1.47-.041-3.4.183-3.4,1.793a1.285,1.285,0,0,0,1.344,1.4,2.008,2.008,0,0,0,1.987-1.344,1.126,1.126,0,0,0,.07-.406Z" transform="translate(-126.709 -113.532)" fill="#464749"/>
      <path id="Path_29" data-name="Path 29" d="M196.559,118.375c0-.615-.014-1.078-.057-1.61h.631l.042,1.2h.028a2.528,2.528,0,0,1,2.311-1.359c.644,0,2.35.322,2.35,2.842v4.031h-.672V119.51c0-1.232-.476-2.337-1.861-2.337a2.154,2.154,0,0,0-2.015,1.552,2.384,2.384,0,0,0-.084.589v4.171h-.672Z" transform="translate(-125.235 -113.532)" fill="#464749"/>
      <path id="Path_30" data-name="Path 30" d="M207.2,123.191a4.582,4.582,0,0,1-1.973.434A3.166,3.166,0,0,1,202,120.2a3.372,3.372,0,0,1,3.457-3.584,3.439,3.439,0,0,1,1.765.42l-.238.546a3.017,3.017,0,0,0-1.583-.391,2.7,2.7,0,0,0-2.728,2.953,2.653,2.653,0,0,0,2.659,2.912,3.726,3.726,0,0,0,1.68-.393Z" transform="translate(-123.737 -113.532)" fill="#464749"/>
      <path id="Path_31" data-name="Path 31" d="M207.566,120.055c0,2.143,1.177,3,2.563,3a3.881,3.881,0,0,0,1.861-.379l.168.518a4.432,4.432,0,0,1-2.113.434,3.08,3.08,0,0,1-3.135-3.373c0-2.239,1.286-3.64,3.023-3.64,2.2,0,2.617,2.071,2.617,3.038a1.709,1.709,0,0,1-.028.4Zm4.285-.532a2.054,2.054,0,0,0-2-2.35,2.385,2.385,0,0,0-2.239,2.35Z" transform="translate(-122.4 -113.532)" fill="#464749"/>
      <path id="Path_32" data-name="Path 32" d="M212.684,114.191h.671v9.954h-.671Z" transform="translate(-120.827 -114.191)" fill="#464749"/>
      <path id="Path_33" data-name="Path 33" d="M219.327,122.48a10.074,10.074,0,0,0,.1,1.6h-.616l-.1-.966h-.028a2.567,2.567,0,0,1-2.155,1.12,1.826,1.826,0,0,1-1.975-1.846c0-1.555,1.359-2.493,4.1-2.466v-.182c0-.658-.126-1.987-1.722-1.972a2.936,2.936,0,0,0-1.695.5l-.21-.49A3.709,3.709,0,0,1,217,117.2c1.945,0,2.323,1.456,2.323,2.645Zm-.672-2c-1.47-.041-3.4.183-3.4,1.793a1.285,1.285,0,0,0,1.344,1.4,2.009,2.009,0,0,0,1.987-1.344,1.125,1.125,0,0,0,.07-.406Zm.14-6.032-1.709,1.931h-.517l1.246-1.931Z" transform="translate(-120.318 -114.122)" fill="#464749"/>
      <path id="Path_34" data-name="Path 34" d="M221.084,116.376l-1.316-1.931h.671l.9,1.4h.028l.9-1.4h.63l-1.274,1.931Zm-1.022,3c0-.672-.014-1.358-.056-2.015h.616l.027,1.359h.043a2.069,2.069,0,0,1,1.9-1.513,1.589,1.589,0,0,1,.28.029v.629a2.491,2.491,0,0,0-.321-.013c-.925,0-1.583.8-1.765,1.875a3.143,3.143,0,0,0-.056.644v3.709h-.672Z" transform="translate(-118.898 -114.122)" fill="#464749"/>
      <path id="Path_35" data-name="Path 35" d="M222.155,124.065a19.293,19.293,0,0,0,.728-2.967l.88-.14A17.508,17.508,0,0,1,222.687,124Z" transform="translate(-118.248 -112.348)" fill="#464749"/>
      <path id="Path_36" data-name="Path 36" d="M226.914,122.6a2.972,2.972,0,0,0,1.512.462c1.064,0,1.569-.575,1.569-1.272,0-.743-.449-1.135-1.415-1.527-1.106-.42-1.708-1.022-1.708-1.834a1.879,1.879,0,0,1,2.073-1.821,2.646,2.646,0,0,1,1.484.42l-.253.546a2.26,2.26,0,0,0-1.342-.4,1.173,1.173,0,0,0-1.3,1.162c0,.7.476.992,1.386,1.372,1.092.434,1.735.981,1.735,2,0,1.149-.9,1.917-2.267,1.917a3.322,3.322,0,0,1-1.708-.461Z" transform="translate(-117.016 -113.532)" fill="#464749"/>
      <path id="Path_37" data-name="Path 37" d="M231.314,122.4a.633.633,0,1,1,.588-.629.59.59,0,0,1-.574.629Z" transform="translate(-115.902 -112.297)" fill="#464749"/>
      <path id="Path_38" data-name="Path 38" d="M232.979,118.781c0-.672-.013-1.358-.056-2.015h.617l.027,1.359h.042a2.072,2.072,0,0,1,1.9-1.513,1.586,1.586,0,0,1,.28.029v.629a2.5,2.5,0,0,0-.322-.013c-.924,0-1.582.8-1.763,1.875a3.053,3.053,0,0,0-.056.644v3.709h-.673Z" transform="translate(-115.315 -113.532)" fill="#464749"/>
      <path id="Path_39" data-name="Path 39" d="M235.978,122.4a.633.633,0,1,1,.588-.629.59.59,0,0,1-.574.629Z" transform="translate(-114.632 -112.297)" fill="#464749"/>
      <path id="Path_40" data-name="Path 40" d="M240.282,123.639a3.15,3.15,0,0,1-3.079-3.457,3.25,3.25,0,0,1,3.177-3.57c1.863,0,3.121,1.4,3.121,3.458a3.255,3.255,0,0,1-3.205,3.569Zm.042-.56a2.719,2.719,0,0,0,2.507-2.981c0-1.232-.687-2.925-2.465-2.925-1.723,0-2.491,1.526-2.491,2.967a2.671,2.671,0,0,0,2.435,2.939Z" transform="translate(-114.149 -113.532)" fill="#464749"/>
      <path id="Path_41" data-name="Path 41" d="M243.546,122.4a.633.633,0,1,1,.588-.629.59.59,0,0,1-.574.629Z" transform="translate(-112.57 -112.297)" fill="#464749"/>
    </g>
  </g>
</svg>
